<svg id="Capa_1" enable-background="new 0 0 509.262 509.262" height="512" viewBox="0 0 509.262 509.262" width="512" xmlns="http://www.w3.org/2000/svg"><g><g><path d="m472.149 193.01h-440.839c-18.02 0-24.87-23.54-9.67-33.21l47.18-30 7.2-4.58 166.04-105.59c5.9-3.76 13.43-3.76 19.33 0l77.43 49.24 124.13 78.94 18.86 11.99c15.209 9.67 8.359 33.21-9.661 33.21z" fill="#f9f3f1"/><path d="m124.997 227.1h259v227h-259z" fill="#cdbfba"/><path d="m191.593 452.1v-110.144c0-15.945 9.939-28.857 22.188-28.857h76.513c12.25 0 22.188 12.911 22.188 28.857v110.144z" fill="#f9f3f1"/><path d="m243.779 313.1c-12.25 0-22.19 12.91-22.19 28.86v110.14h-30v-110.14c0-15.95 9.94-28.86 22.19-28.86z" fill="#e1d3ce"/><path d="m466.718 192.735v29.044c0 3.471-2.821 6.291-6.291 6.291h-25.301-63.447-228.622-63.446-33.061c-3.481 0-6.291-2.821-6.291-6.291v-29.044z" fill="#f9f3f1"/><path d="m468.457 500.697h-426.333c-8.907 0-16.128-7.221-16.128-16.128v-18.342c0-8.907 7.221-16.128 16.128-16.128h426.333c8.907 0 16.128 7.221 16.128 16.128v18.342c0 8.907-7.221 16.128-16.128 16.128z" fill="#f9f3f1"/><circle cx="255.043" cy="118.146" fill="#faf8f8" r="46.046"/><g fill="#f9f3f1"><path d="m62.967 228.07h63.45v194.03h-63.45z"/><path d="m382.387 228.07h63.45v193.03h-63.45z"/><path d="m46.997 438.77v-6.34c0-6.257 5.073-11.33 11.33-11.33h68.34c6.257 0 11.33 5.073 11.33 11.33v6.34c0 6.257-5.073 11.33-11.33 11.33h-68.34c-6.258 0-11.33-5.073-11.33-11.33z"/><path d="m366.997 438.77v-6.34c0-6.257 5.073-11.33 11.33-11.33h68.34c6.257 0 11.33 5.073 11.33 11.33v6.34c0 6.257-5.073 11.33-11.33 11.33h-68.34c-6.258 0-11.33-5.073-11.33-11.33z"/></g><ellipse cx="425.629" cy="79.321" fill="#ffe177" rx="70.367" ry="70.757"/><ellipse cx="425.957" cy="79.5" fill="#ffc344" rx="41.842" ry="42.074"/><path d="m72.119 500.7h-30c-8.9 0-16.12-7.22-16.12-16.13v-18.34c0-8.91 7.22-16.13 16.12-16.13h30c-8.9 0-16.12 7.22-16.12 16.13v18.34c0 8.91 7.22 16.13 16.12 16.13z" fill="#e1d3ce"/><path d="m88.329 450.1h-30c-6.26 0-11.33-5.07-11.33-11.33v-6.34c0-6.26 5.07-11.33 11.33-11.33h30c-6.26 0-11.33 5.07-11.33 11.33v6.34c0 6.26 5.071 11.33 11.33 11.33z" fill="#e1d3ce"/><path d="m62.969 228.07h30v194.03h-30z" fill="#e1d3ce"/><path d="m76.55 228.07h-30c-3.48 0-6.29-2.82-6.29-6.29v-29.04h30v29.04c-.001 3.47 2.81 6.29 6.29 6.29z" fill="#e1d3ce"/><path d="m270.039 161.69c-4.7 1.62-9.75 2.5-15 2.5-25.43 0-46.04-20.61-46.04-46.04s20.61-46.05 46.04-46.05c5.25 0 10.3.88 15 2.5-18.06 6.22-31.04 23.37-31.04 43.55s12.98 37.32 31.04 43.54z" fill="#f3eae6"/><path d="m61.31 193.01h-30c-18.02 0-24.87-23.54-9.67-33.21l33-20.98-3 2.94c-15.201 14.92-8.35 51.25 9.67 51.25z" fill="#e1d3ce"/><path d="m439.06 148.789c-4.362.851-8.876 1.29-13.489 1.29-38.863-.027-70.337-31.734-70.31-70.812s31.563-70.731 70.427-70.704c4.568 0 9.037.448 13.363 1.299-32.405 6.306-56.893 34.976-56.92 69.406-.026 34.473 24.47 63.215 56.929 69.521z" fill="#ffd064"/><path d="m382.389 228.07h30v193.03h-30z" fill="#e1d3ce"/><path d="m408.33 450.1h-30c-6.26 0-11.33-5.07-11.33-11.33v-6.34c0-6.26 5.07-11.33 11.33-11.33h30c-6.26 0-11.33 5.07-11.33 11.33v6.34c-.001 6.26 5.07 11.33 11.33 11.33z" fill="#e1d3ce"/></g><g><path d="m486.02 154.083-14.579-9.271c20.196-14.516 33.386-38.193 33.386-64.906-.001-44.06-35.846-79.906-79.907-79.906-39.063 0-71.646 28.183-78.54 65.279l-81.521-51.847c-8.314-5.285-19.063-5.285-27.377.001l-221.161 140.65c-9.815 6.241-14.058 17.489-10.808 28.657 3.237 11.125 12.792 18.323 24.362 18.377v21.625c0 7.615 6.195 13.81 13.81 13.81h8.96v175.314c-8.327 1.173-14.76 8.316-14.76 16.948v14.932c-11.55 1.541-20.49 11.45-20.49 23.415v18.47c0 13.03 10.601 23.63 23.63 23.63h348.12c4.143 0 7.5-3.358 7.5-7.5s-3.357-7.5-7.5-7.5h-348.12c-4.759 0-8.63-3.871-8.63-8.63v-18.47c0-4.758 3.871-8.63 8.63-8.63h427.54c4.759 0 8.63 3.872 8.63 8.63v18.47c0 4.759-3.871 8.63-8.63 8.63h-45.42c-4.143 0-7.5 3.358-7.5 7.5s3.357 7.5 7.5 7.5h45.42c13.029 0 23.63-10.6 23.63-23.63v-18.47c0-13.03-10.601-23.63-23.63-23.63h-2.545v-14.717c0-8.846-6.749-16.147-15.375-17.042v-175.22h8.01c7.615 0 13.811-6.195 13.811-13.81v-21.625c11.57-.054 21.125-7.252 24.361-18.377 3.25-11.168-.992-22.416-10.807-28.657zm-61.1-139.083c35.789 0 64.906 29.117 64.906 64.906 0 35.79-29.117 64.906-64.906 64.906s-64.905-29.117-64.905-64.906 29.116-64.906 64.905-64.906zm-309.274 221.552v175.126h-48v-175.126zm15.112 206.98h-77.872v-14.717c0-1.178.97-2.136 2.162-2.136h73.538c1.197 0 2.172.958 2.172 2.136zm174.3 0h-106.208v-101.643c0-11.435 6.753-21.095 14.746-21.095h76.715c7.994 0 14.747 9.661 14.747 21.095zm145.963 0h-77.871v-14.717c0-1.178.97-2.136 2.161-2.136h73.549c1.191 0 2.161.958 2.161 2.136zm-15.375-31.853h-48v-175.127h48zm46.779-233.129c-1.065 3.661-4.275 7.573-10.089 7.573h-281.69c-4.143 0-7.5 3.358-7.5 7.5s3.357 7.5 7.5 7.5h266.82v20.43h-118.32c-4.143 0-7.5 3.358-7.5 7.5s3.357 7.5 7.5 7.5h33.5v175.355c-8.198 1.285-14.496 8.367-14.496 16.908v14.717h-38.092v-101.644c0-19.903-13.345-36.095-29.747-36.095h-76.715c-16.402 0-29.746 16.192-29.746 36.095v101.644h-38.092v-14.717c0-8.752-6.613-15.98-15.112-17.001v-175.263h174.5c4.143 0 7.5-3.358 7.5-7.5s-3.357-7.5-7.5-7.5h-260.27v-20.43h111.77c4.143 0 7.5-3.358 7.5-7.5s-3.357-7.5-7.5-7.5h-126.64c-5.814 0-9.024-3.912-10.09-7.573-1.065-3.662-.455-8.687 4.454-11.809l221.159-140.648c3.428-2.179 7.857-2.178 11.281-.001l88.263 56.134c1.235 42.989 36.565 77.587 79.846 77.587 11.286 0 22.026-2.365 31.769-6.604l21.281 13.534c4.911 3.12 5.521 8.146 4.456 11.808z"/><path d="m254.795 64.639c-29.592 0-53.667 24.075-53.667 53.667s24.075 53.667 53.667 53.667c29.593 0 53.668-24.075 53.668-53.667s-24.075-53.667-53.668-53.667zm0 92.335c-21.321 0-38.667-17.346-38.667-38.667s17.346-38.667 38.667-38.667 38.668 17.346 38.668 38.667-17.347 38.667-38.668 38.667z"/><path d="m424.92 129.104c27.128 0 49.198-22.07 49.198-49.199 0-27.128-22.07-49.198-49.198-49.198s-49.198 22.07-49.198 49.198c0 27.129 22.07 49.199 49.198 49.199zm0-83.396c18.857 0 34.198 15.341 34.198 34.198s-15.341 34.199-34.198 34.199-34.198-15.341-34.198-34.199c0-18.857 15.341-34.198 34.198-34.198z"/></g></g></svg>